<svg xmlns="http://www.w3.org/2000/svg" xmlns:xlink="http://www.w3.org/1999/xlink" width="48" height="48" viewBox="0 0 48 48"><defs><clipPath id="a"><rect width="48" height="48" fill="none"/></clipPath></defs><g clip-path="url(#a)"><rect width="48" height="48" rx="24" fill="#EADFB9"/><g transform="translate(14 12)"><path d="M12.286,24.667A10.287,10.287,0,0,0,22.571,14.381,10.287,10.287,0,0,0,12.286,24.667ZM4.971,11.238a2.86,2.86,0,0,0,4.48,2.354l-.023.217a2.857,2.857,0,1,0,5.714,0l-.023-.217a2.816,2.816,0,0,0,1.623.5,2.851,2.851,0,0,0,1.223-5.429A2.853,2.853,0,1,0,15.12,3.741l.023-.217a2.857,2.857,0,0,0-5.714,0l.023.217a2.816,2.816,0,0,0-1.623-.5A2.851,2.851,0,0,0,6.606,8.667,2.847,2.847,0,0,0,4.971,11.238ZM12.286,5.81A2.857,2.857,0,1,1,9.429,8.667,2.858,2.858,0,0,1,12.286,5.81ZM2,14.381A10.287,10.287,0,0,0,12.286,24.667,10.287,10.287,0,0,0,2,14.381Z" transform="translate(-2 -0.667)" fill="#605649"/></g></g></svg>