<svg xmlns="http://www.w3.org/2000/svg" xmlns:xlink="http://www.w3.org/1999/xlink" width="48" height="48" viewBox="0 0 48 48"><defs><clipPath id="a"><rect width="48" height="48" fill="none"/></clipPath></defs><g clip-path="url(#a)"><rect width="48" height="48" rx="24" fill="#f7eceb"/><g transform="translate(-1293 -417)"><path d="M2.25,0H.75A.75.75,0,0,0,0,.75v1.5A.75.75,0,0,0,.75,3h1.5A.75.75,0,0,0,3,2.25V.75A.75.75,0,0,0,2.25,0Z" transform="translate(1305 434)" fill="#ebd0ce" fill-rule="evenodd"/><path d="M21.75,0h-18A.75.75,0,0,0,3,.75v1.5A.75.75,0,0,0,3.75,3h18a.75.75,0,0,0,.75-.75V.75A.75.75,0,0,0,21.75,0Z" transform="translate(1306.5 434)" fill="#ebd0ce" fill-rule="evenodd"/><path d="M2.25,4H.75A.75.75,0,0,0,0,4.75v1.5A.75.75,0,0,0,.75,7h1.5A.75.75,0,0,0,3,6.25V4.75A.75.75,0,0,0,2.25,4Z" transform="translate(1305 436)" fill="#ebd0ce" fill-rule="evenodd"/><path d="M21.75,4h-18A.75.75,0,0,0,3,4.75v1.5A.75.75,0,0,0,3.75,7h18a.75.75,0,0,0,.75-.75V4.75A.75.75,0,0,0,21.75,4Z" transform="translate(1306.5 436)" fill="#ebd0ce" fill-rule="evenodd"/><path d="M2.25,8H.75A.75.75,0,0,0,0,8.75v1.5A.75.75,0,0,0,.75,11h1.5A.75.75,0,0,0,3,10.25V8.75A.75.75,0,0,0,2.25,8Z" transform="translate(1305 438)" fill="#ebd0ce" fill-rule="evenodd"/><path d="M21.75,8h-18A.75.75,0,0,0,3,8.75v1.5a.75.75,0,0,0,.75.75h18a.75.75,0,0,0,.75-.75V8.75A.75.75,0,0,0,21.75,8Z" transform="translate(1306.5 438)" fill="#ebd0ce" fill-rule="evenodd"/></g></g></svg>