<svg xmlns="http://www.w3.org/2000/svg" xmlns:xlink="http://www.w3.org/1999/xlink" width="48" height="48" viewBox="0 0 48 48"><defs><clipPath id="a"><rect width="48" height="48" fill="none"/></clipPath></defs><g clip-path="url(#a)"><rect width="48" height="48" rx="24" fill="#EADFB9"/><path d="M12.906,26.1a3.612,3.612,0,0,1,2.727-5.963h.09A7.264,7.264,0,0,1,14.614,15.4a10.006,10.006,0,0,1,1.139-3.536c.539-1.019,1.139-1.8,1.079-1.768a7.169,7.169,0,0,0,.6.929,7.542,7.542,0,0,0,2.547,1.708c2.337,1.2,6.2,2.067,7.431,3.3a3.354,3.354,0,0,1,.719,4.135h.3a3.587,3.587,0,0,1,2.7,5.963A3.955,3.955,0,0,1,34,29.932h0a4.015,4.015,0,0,1-4.015,4.015H14.015A4.015,4.015,0,0,1,10,29.932h0A4.12,4.12,0,0,1,12.906,26.1Z" transform="translate(3 0.905)" fill="#605649"/></g></svg>