<svg xmlns="http://www.w3.org/2000/svg" xmlns:xlink="http://www.w3.org/1999/xlink" width="48" height="48" viewBox="0 0 48 48"><defs><clipPath id="a"><rect width="48" height="48" fill="none"/></clipPath></defs><g clip-path="url(#a)"><rect width="48" height="48" rx="24" fill="#f7eceb"/><path d="M13.988,2A12,12,0,1,0,26,14,11.994,11.994,0,0,0,13.988,2ZM14,23.6A9.6,9.6,0,1,1,23.6,14,9.6,9.6,0,0,1,14,23.6Zm4.2-10.8A1.8,1.8,0,1,0,16.4,11,1.8,1.8,0,0,0,18.2,12.8Zm-8.4,0A1.8,1.8,0,1,0,8,11,1.8,1.8,0,0,0,9.8,12.8ZM14,20.6a6.6,6.6,0,0,0,6.132-4.2H7.868A6.6,6.6,0,0,0,14,20.6Z" transform="translate(10 10)" fill="#ebd0ce"/></g></svg>